<?xml version="1.0" standalone="no"?>
<svg xmlns="http://www.w3.org/2000/svg" viewBox="0 0 319.8081820978161 103.20818209781605" width="319.8081820978161" height="103.20818209781605"><rect fill="#273746" width="319.8081820978161" height="103.20818209781605" x="0" y="0"></rect><g fill="white" color="white" transform="translate(12 12) scale(0.7920819)"><svg width="100.0" height="100.0" x="0.0" y="0.0" viewBox="0 0 100 100"><path d="M46.372,78.876c0,0,8.304-27.753-11.914-40.424c-17.922-11.233-24.03-11.813-27.93-22.591c0,0-9.592,25.191,19.284,42.419  c0,0,12.053,6.172,14.829,7.131c0,0-0.682-3.231-8.166-13.618C32.477,51.792,47.798,60.917,46.372,78.876z M41.134,35.789  c3.9-0.505,6.651-4.089,6.146-7.989c-0.518-3.912-4.102-6.651-8.002-6.146c-3.9,0.517-6.651,4.089-6.146,8.002  C33.65,33.555,37.235,36.306,41.134,35.789z M49.401,59.15c0,0,2.852,16.723-4.657,24.989c0,0,11.296-6.525,6.828-34.947  c0.164,0.555-1.716-13.088,7.333-21.329c2.436-2.133,5.641-3.963,9.857-5.149c0,0-14.766,7.143-13.378,19.613  c0,0,14.893,2.007,22.49-13.201c0,0,6.197-10.74,17.126-10.513C95,18.612,36.894,4.073,49.401,59.15z"></path></svg></g><path fill="white" fill-rule="nonzero" d="M3.60 27.20L3.60 5.60Q3.60 3.56 3.04 2.58Q2.48 1.60 0.80 1.60L0.80 1.60L0 1.60L0 0.80L10.40 0.80Q14.76 0.80 17.98 2.24Q21.20 3.68 21.20 7.80L21.20 7.80Q21.20 9.68 19.92 11.20Q18.64 12.72 16 13.60L16 13.60Q19.68 14.20 21.14 15.78Q22.60 17.36 22.60 20L22.60 20Q22.60 24.04 19.42 25.62Q16.24 27.20 11.60 27.20L11.60 27.20L3.60 27.20ZM7.20 13.00L11 13.00Q12.64 13.00 14.10 12.38Q15.56 11.76 16.48 10.54Q17.40 9.32 17.40 7.60L17.40 7.60Q17.40 5.80 16.32 4.58Q15.24 3.36 13.58 2.78Q11.92 2.20 10.20 2.20L10.20 2.20Q8.80 2.20 7.20 2.60L7.20 2.60L7.20 13.00ZM11 25.80Q14.64 25.80 16.62 24.36Q18.60 22.92 18.60 20.20L18.60 20.20Q18.60 17.48 16.66 16.04Q14.72 14.60 11 14.60L11 14.60L7.20 14.60L7.20 25.24Q9.12 25.80 11 25.80L11 25.80ZM48.88 27.40Q46.96 27.40 45.08 26.34Q43.20 25.28 42.08 22.20L42.08 22.20L41.08 19.60L29.88 19.60L26.68 27.20L24.88 27.20L36.08 0.80L37.28 0.80L46.08 22.20Q47.08 24.52 47.96 25.38Q48.84 26.24 50.48 26.40L50.48 26.40L50.48 27.20Q49.76 27.40 48.88 27.40L48.88 27.40ZM35.48 6.40L30.48 18L40.28 18L35.48 6.40ZM72.60 27.60L55.40 6.20L55.40 27.20L53.80 27.20L53.80 5.60Q53.80 3.68 52.98 2.64Q52.16 1.60 50.20 1.60L50.20 1.60L49.80 1.60L49.80 0.80L52.40 0.80Q54.24 0.80 55.52 1.40Q56.80 2 57.80 3.20L57.80 3.20L71.80 20.60L71.80 0.80L73.40 0.80L73.40 27.60L72.60 27.60ZM90.96 28Q87.24 28 84.42 26.20Q81.60 24.40 80.08 21.30Q78.56 18.20 78.56 14.40L78.56 14.40Q78.56 10.48 80.22 7.16Q81.88 3.84 84.74 1.92Q87.60 0 90.96 0L90.96 0Q94.16 0 96.58 0.90Q99.00 1.80 100.16 3.20L100.16 3.20Q100.84 4.04 101.00 5.42Q101.16 6.80 101.16 9.20L101.16 9.20L100.36 9.20Q99.60 5.32 97.56 3.46Q95.52 1.60 92.16 1.60L92.16 1.60Q87.84 1.60 85.20 4.64Q82.56 7.68 82.56 14.40L82.56 14.40Q82.56 17.56 83.58 20.28Q84.60 23 86.76 24.70Q88.92 26.40 92.16 26.40L92.16 26.40Q95.08 26.40 97.26 25Q99.44 23.60 101.16 20.80L101.16 20.80L101.96 21.40Q100.12 25 97.42 26.50Q94.72 28 90.96 28L90.96 28ZM117.64 28Q113.92 28 111.10 26.16Q108.28 24.32 106.76 21.12Q105.24 17.92 105.24 14.00L105.24 14.00Q105.24 10.08 106.76 6.88Q108.28 3.68 111.10 1.84Q113.92 0 117.64 0L117.64 0Q121.36 0 124.18 1.84Q127 3.68 128.52 6.88Q130.04 10.08 130.04 14.00L130.04 14.00Q130.04 17.92 128.52 21.12Q127 24.32 124.18 26.16Q121.36 28 117.64 28L117.64 28ZM117.64 26.40Q120.24 26.40 122.14 24.88Q124.04 23.36 125.04 20.58Q126.04 17.80 126.04 14.00L126.04 14.00Q126.04 10.20 125.04 7.42Q124.04 4.64 122.14 3.12Q120.24 1.60 117.64 1.60L117.64 1.60Q115.04 1.60 113.14 3.12Q111.24 4.64 110.24 7.42Q109.24 10.20 109.24 14.00L109.24 14.00Q109.24 17.80 110.24 20.58Q111.24 23.36 113.14 24.88Q115.04 26.40 117.64 26.40L117.64 26.40Z" transform="translate(106.209 12) scale(1.551)"></path><path fill="white" fill-rule="nonzero" d="M3.60 27.12L3.60 5.52Q3.60 3.48 3.04 2.50Q2.48 1.52 0.80 1.52L0.80 1.52L0 1.52L0 0.72L10.40 0.72Q14.76 0.72 17.98 2.16Q21.20 3.60 21.20 7.72L21.20 7.72Q21.20 9.60 19.92 11.12Q18.64 12.64 16 13.52L16 13.52Q19.68 14.12 21.14 15.70Q22.60 17.28 22.60 19.92L22.60 19.92Q22.60 23.96 19.42 25.54Q16.24 27.12 11.60 27.12L11.60 27.12L3.60 27.12ZM7.20 12.92L11 12.92Q12.64 12.92 14.10 12.30Q15.56 11.68 16.48 10.46Q17.40 9.24 17.40 7.52L17.40 7.52Q17.40 5.72 16.32 4.50Q15.24 3.28 13.58 2.70Q11.92 2.12 10.20 2.12L10.20 2.12Q8.80 2.12 7.20 2.52L7.20 2.52L7.20 12.92ZM11 25.72Q14.64 25.72 16.62 24.28Q18.60 22.84 18.60 20.12L18.60 20.12Q18.60 17.40 16.66 15.96Q14.72 14.52 11 14.52L11 14.52L7.20 14.52L7.20 25.16Q9.12 25.72 11 25.72L11 25.72ZM31.40 27.12Q29.92 27.12 29.18 26.74Q28.44 26.36 28.12 25.36Q27.80 24.36 27.80 22.32L27.80 22.32L27.80 0.72L31.40 0.72L31.40 22.32Q31.40 24.36 31.96 25.34Q32.52 26.32 34.20 26.32L34.20 26.32L35 26.32L35 27.12L31.40 27.12ZM39.88 27.12L39.88 5.52Q39.88 3.48 39.32 2.50Q38.76 1.52 37.08 1.52L37.08 1.52L36.28 1.52L36.28 0.72L53.32 0.72Q56.72 0.72 56.72 3.92L56.72 3.92L56.72 6.92L55.92 6.92Q55.92 2.32 50.92 2.32L50.92 2.32L43.48 2.32L43.48 12.72L54.28 12.72L54.28 14.32L43.48 14.32L43.48 25.52L50.48 25.52Q53.24 25.52 54.80 24.52Q56.36 23.52 57.28 21.12L57.28 21.12L58.08 21.32L56.68 25.12Q55.96 27.12 53.68 27.12L53.68 27.12L39.88 27.12ZM82.44 27.52L65.24 6.12L65.24 27.12L63.64 27.12L63.64 5.52Q63.64 3.60 62.82 2.56Q62 1.52 60.04 1.52L60.04 1.52L59.64 1.52L59.64 0.72L62.24 0.72Q64.08 0.72 65.36 1.32Q66.64 1.92 67.64 3.12L67.64 3.12L81.64 20.52L81.64 0.72L83.24 0.72L83.24 27.52L82.44 27.52ZM90.88 27.12L90.88 5.52Q90.88 3.48 90.32 2.50Q89.76 1.52 88.08 1.52L88.08 1.52L87.28 1.52L87.28 0.72L104.32 0.72Q107.72 0.72 107.72 3.92L107.72 3.92L107.72 6.92L106.92 6.92Q106.92 2.32 101.92 2.32L101.92 2.32L94.48 2.32L94.48 12.72L105.28 12.72L105.28 14.32L94.48 14.32L94.48 25.52L101.48 25.52Q104.24 25.52 105.80 24.52Q107.36 23.52 108.28 21.12L108.28 21.12L109.08 21.32L107.68 25.12Q106.96 27.12 104.68 27.12L104.68 27.12L90.88 27.12ZM121.52 27.80Q119.32 27.80 117.20 27.20Q115.08 26.60 113.74 25.48Q112.40 24.36 112.40 22.92L112.40 22.92L112.40 18.64L113.12 18.64Q113.80 22.64 115.76 24.42Q117.72 26.20 121.16 26.20L121.16 26.20Q123.32 26.20 124.86 25.12Q126.40 24.04 126.40 22.12L126.40 22.12Q126.40 20.44 125.36 19.20Q124.32 17.96 122.00 16.60L122.00 16.60L117.08 13.68Q114.52 12.16 113.46 10.60Q112.40 9.04 112.40 6.80L112.40 6.80Q112.40 3.72 114.54 1.86Q116.68 0 120.16 0L120.16 0Q122.20 0 124.20 0.58Q126.20 1.16 127.50 2.26Q128.80 3.36 128.80 4.80L128.80 4.80L128.80 9.08L128.08 9.08Q127.40 5.08 125.50 3.34Q123.60 1.60 120.16 1.60L120.16 1.60Q118.32 1.60 116.92 2.72Q115.52 3.84 115.52 5.64L115.52 5.64Q115.52 7.28 116.54 8.36Q117.56 9.44 119.96 10.88L119.96 10.88L124.88 13.80Q127.60 15.44 128.72 16.84Q129.84 18.24 129.84 20.40L129.84 20.40Q129.84 23.76 127.60 25.78Q125.36 27.80 121.52 27.80L121.52 27.80ZM141.80 27.12L141.80 2.32L138.20 2.32Q133.20 2.32 133.20 6.92L133.20 6.92L132.40 6.92L132.40 3.92Q132.40 0.72 135.80 0.72L135.80 0.72L154.40 0.72L154.40 2.32L145.40 2.32L145.40 27.12L141.80 27.12ZM176.84 27.32Q174.92 27.32 173.04 26.26Q171.16 25.20 170.04 22.12L170.04 22.12L169.04 19.52L157.84 19.52L154.64 27.12L152.84 27.12L164.04 0.72L165.24 0.72L174.04 22.12Q175.04 24.44 175.92 25.30Q176.80 26.16 178.44 26.32L178.44 26.32L178.44 27.12Q177.72 27.32 176.84 27.32L176.84 27.32ZM163.44 6.32L158.44 17.92L168.24 17.92L163.44 6.32ZM199.20 27.52Q197.08 27.52 195.50 26.26Q193.92 25 192 21.72L192 21.72L188 14.92L185.20 14.92L185.20 27.12L181.60 27.12L181.60 5.52Q181.60 3.48 181.04 2.50Q180.48 1.52 178.80 1.52L178.80 1.52L178 1.52L178 0.72L188.40 0.72Q192.20 0.72 195.30 2.22Q198.40 3.72 198.40 7.92L198.40 7.92Q198.40 13.24 192 14.72L192 14.72L196.20 21.72Q197.68 24.20 198.86 25.18Q200.04 26.16 201.60 26.32L201.60 26.32L201.60 27.12Q201.24 27.28 200.58 27.40Q199.92 27.52 199.20 27.52L199.20 27.52ZM188.20 13.52Q189.44 13.52 190.90 12.92Q192.36 12.32 193.38 11.04Q194.40 9.76 194.40 7.92L194.40 7.92Q194.40 5.96 193.38 4.66Q192.36 3.36 190.90 2.74Q189.44 2.12 188.20 2.12L188.20 2.12Q186.80 2.12 185.20 2.52L185.20 2.52L185.20 13.12Q186.80 13.52 188.20 13.52L188.20 13.52Z" transform="translate(106.209 63.409) scale(1)"></path></svg>